<svg width="254" height="140" viewBox="0 0 254 140" fill="none" xmlns="http://www.w3.org/2000/svg">
<path d="M219.689 25.8972H6.20429C2.85542 25.8972 0.140625 28.612 0.140625 31.9609V133.902C0.140625 137.251 2.85542 139.965 6.20429 139.965H219.689C223.038 139.965 225.753 137.251 225.753 133.902V31.9609C225.753 28.612 223.038 25.8972 219.689 25.8972Z" fill="#FAFAFA"/>
<path d="M219.689 139.965L220.122 139.937C220.549 139.905 220.973 139.828 221.384 139.706C222.056 139.501 222.688 139.181 223.251 138.761C224.041 138.178 224.674 137.41 225.096 136.524C225.358 135.996 225.535 135.43 225.62 134.847C225.699 134.199 225.724 133.545 225.695 132.893C225.695 131.521 225.695 130.011 225.695 128.386C225.695 125.129 225.695 121.371 225.695 117.14C225.695 100.212 225.695 75.7207 225.643 45.46C225.643 41.6789 225.643 37.8075 225.643 33.8457C225.681 32.8569 225.647 31.8667 225.54 30.883C225.361 29.9075 224.941 28.9921 224.318 28.2201C223.364 27.0404 221.994 26.271 220.491 26.0702C219.983 26.0161 219.473 25.9969 218.963 26.0125H193.216H136.4H6.22782C4.80734 26.0164 3.4345 26.5251 2.35445 27.4477C1.27938 28.3691 0.57491 29.649 0.371667 31.0502C0.297276 31.7546 0.272235 32.4634 0.296733 33.1713V89.8077C0.296733 100.694 0.296733 111.38 0.296733 121.867V133.556C0.24168 134.82 0.584369 136.07 1.2766 137.13C1.96881 138.184 2.97796 138.991 4.15857 139.435C5.31135 139.919 6.60824 139.787 7.87054 139.81H15.4213L121.743 139.844L193.417 139.891H212.905H217.972C219.124 139.891 219.701 139.891 219.701 139.891H217.972H212.905L193.417 139.919L121.743 139.971L15.4213 140H7.87054C7.23651 140 6.614 140 5.96844 140C5.3154 139.983 4.67007 139.855 4.06058 139.62C2.8254 139.163 1.76757 138.325 1.04028 137.228C0.318651 136.121 -0.0418401 134.818 0.00853666 133.498V89.7501C0.00853666 78.8601 0.00853666 67.7876 0.00853666 56.5326V33.2059C-0.0149644 32.4826 0.0100716 31.7586 0.0834706 31.0387C0.298542 29.5673 1.03988 28.2239 2.17001 27.2575C3.30319 26.2854 4.74629 25.7498 6.23935 25.7474H136.412H193.227H218.975C219.494 25.7313 220.014 25.7525 220.531 25.8108C221.049 25.8793 221.556 26.0129 222.041 26.2085C223.001 26.6079 223.848 27.2374 224.508 28.0414C225.153 28.8447 225.589 29.7952 225.776 30.8081C225.859 31.307 225.894 31.8127 225.88 32.3183V33.8111C225.88 37.7729 225.88 41.6443 225.88 45.4254C225.88 75.6861 225.845 100.183 225.834 117.106C225.834 121.336 225.834 125.095 225.834 128.351C225.834 129.98 225.834 131.483 225.834 132.859C225.861 133.515 225.832 134.173 225.747 134.824C225.663 135.412 225.484 135.982 225.217 136.513C224.788 137.406 224.145 138.178 223.344 138.761C222.769 139.182 222.125 139.5 221.442 139.7C221.026 139.817 220.599 139.89 220.168 139.919L219.689 139.965Z" fill="#263238"/>
<path d="M203.141 46.1749C203.958 45.1466 204.855 44.1831 205.821 43.2929C206.714 42.3276 207.677 41.4298 208.703 40.6069C207.884 41.6342 206.988 42.5976 206.023 43.4889C205.131 44.4554 204.167 45.3533 203.141 46.1749Z" fill="#263238"/>
<path d="M208.744 46.2035C207.703 45.3746 206.727 44.4691 205.821 43.4945C204.842 42.5916 203.936 41.6125 203.112 40.5664C204.152 41.3984 205.128 42.3058 206.035 43.2812C207.009 44.1864 207.915 45.1633 208.744 46.2035Z" fill="#263238"/>
<path d="M212.946 43.2468C212.887 42.6657 212.794 42.0883 212.669 41.5176C212.262 40.0039 211.362 38.6692 210.11 37.725C209.189 37.033 208.11 36.582 206.971 36.4129C205.831 36.2438 204.668 36.362 203.586 36.7566C202.312 37.2274 201.203 38.061 200.398 39.1544C199.53 40.3303 199.061 41.7535 199.061 43.2151C199.061 44.6768 199.53 46.1 200.398 47.2758C201.196 48.3769 202.306 49.2124 203.586 49.6736C204.667 50.0691 205.831 50.1882 206.97 50.0201C208.109 49.852 209.189 49.402 210.11 48.711C211.362 47.7647 212.263 46.4281 212.669 44.9126C212.793 44.3532 212.885 43.7875 212.946 43.218C212.963 43.5488 212.952 43.8806 212.912 44.2094C212.885 44.4562 212.84 44.7009 212.779 44.9414C212.409 46.5068 211.512 47.8971 210.237 48.8782C209.294 49.6102 208.181 50.091 207.001 50.2754C205.822 50.4599 204.615 50.3421 203.493 49.933C202.841 49.7086 202.228 49.3818 201.678 48.9646C201.094 48.5448 200.582 48.0328 200.162 47.4487C199.253 46.2245 198.762 44.74 198.762 43.2151C198.762 41.6902 199.253 40.2058 200.162 38.9815C201.001 37.8412 202.161 36.9765 203.493 36.4973C204.695 36.0663 205.991 35.9648 207.246 36.2033C208.336 36.4128 209.361 36.8769 210.237 37.5578C211.512 38.5359 212.41 39.9246 212.779 41.4888C212.841 41.7312 212.885 41.9778 212.912 42.2266C212.94 42.4058 212.953 42.587 212.952 42.7684C212.961 42.9278 212.959 43.0877 212.946 43.2468Z" fill="#263238"/>
<path d="M205.597 120.518C205.966 120.518 206.32 120.372 206.582 120.111C206.843 119.851 206.991 119.498 206.992 119.129V116.109C207.004 115.918 206.978 115.727 206.913 115.548C206.849 115.368 206.748 115.204 206.618 115.065C206.487 114.926 206.33 114.815 206.155 114.739C205.98 114.663 205.791 114.624 205.6 114.624C205.41 114.624 205.221 114.663 205.046 114.739C204.871 114.815 204.713 114.926 204.583 115.065C204.452 115.204 204.352 115.368 204.287 115.548C204.223 115.727 204.196 115.918 204.208 116.109V119.14C204.211 119.507 204.359 119.857 204.619 120.115C204.879 120.373 205.231 120.518 205.597 120.518ZM205.597 115.278C205.814 115.28 206.021 115.367 206.174 115.52C206.328 115.673 206.414 115.88 206.416 116.097V119.129C206.399 119.333 206.305 119.524 206.154 119.663C206.003 119.802 205.805 119.879 205.6 119.879C205.395 119.879 205.197 119.802 205.046 119.663C204.895 119.524 204.802 119.333 204.785 119.129V116.109C204.783 116.001 204.803 115.893 204.843 115.793C204.883 115.693 204.943 115.601 205.018 115.524C205.094 115.447 205.184 115.386 205.283 115.344C205.383 115.301 205.489 115.279 205.597 115.278Z" fill="#263238"/>
<path d="M205.598 121.959C206.439 121.959 207.246 121.625 207.841 121.031C208.437 120.436 208.772 119.63 208.773 118.789C208.773 118.712 208.743 118.639 208.689 118.585C208.635 118.531 208.562 118.5 208.485 118.5C208.409 118.5 208.336 118.531 208.281 118.585C208.227 118.639 208.197 118.712 208.197 118.789C208.153 119.447 207.861 120.063 207.379 120.514C206.898 120.965 206.263 121.215 205.603 121.215C204.944 121.215 204.309 120.965 203.827 120.514C203.346 120.063 203.053 119.447 203.01 118.789C203.01 118.712 202.979 118.639 202.925 118.585C202.871 118.531 202.798 118.5 202.721 118.5C202.645 118.5 202.572 118.531 202.518 118.585C202.463 118.639 202.433 118.712 202.433 118.789C202.435 119.628 202.768 120.433 203.361 121.027C203.954 121.621 204.758 121.956 205.598 121.959Z" fill="#263238"/>
<path d="M205.598 123.717C205.674 123.717 205.747 123.687 205.801 123.633C205.855 123.578 205.886 123.505 205.886 123.429V121.7C205.886 121.623 205.855 121.55 205.801 121.496C205.747 121.442 205.674 121.411 205.598 121.411C205.521 121.411 205.448 121.442 205.394 121.496C205.34 121.55 205.309 121.623 205.309 121.7V123.429C205.309 123.505 205.34 123.578 205.394 123.633C205.448 123.687 205.521 123.717 205.598 123.717Z" fill="#263238"/>
<path d="M174.311 123.602H182.542C182.618 123.602 182.692 123.571 182.746 123.517C182.8 123.463 182.83 123.39 182.83 123.314V115.088C182.83 115.012 182.8 114.939 182.746 114.885C182.692 114.831 182.618 114.8 182.542 114.8H174.299C174.223 114.8 174.15 114.831 174.096 114.885C174.042 114.939 174.011 115.012 174.011 115.088V123.337C174.017 123.411 174.052 123.48 174.108 123.53C174.164 123.579 174.236 123.605 174.311 123.602ZM182.265 123.025H174.599V115.377H182.265V123.025Z" fill="#263238"/>
<path d="M175.423 121.913C175.466 121.914 175.508 121.905 175.547 121.887C175.586 121.869 175.621 121.843 175.648 121.809L177.284 119.774L178.437 121.181C178.461 121.212 178.492 121.237 178.527 121.255C178.562 121.273 178.6 121.283 178.639 121.285C178.679 121.29 178.719 121.286 178.757 121.273C178.795 121.26 178.83 121.238 178.858 121.21L179.821 120.316C180.397 120.962 180.973 121.63 181.066 121.757C181.096 121.813 181.144 121.858 181.202 121.884C181.261 121.91 181.326 121.915 181.388 121.9C181.45 121.885 181.505 121.85 181.545 121.8C181.584 121.75 181.606 121.688 181.607 121.625C181.607 121.486 181.607 121.463 180.057 119.711C180.032 119.682 180.001 119.659 179.966 119.643C179.931 119.627 179.893 119.619 179.855 119.619C179.817 119.615 179.779 119.62 179.743 119.633C179.707 119.646 179.675 119.667 179.648 119.694L178.691 120.576L177.538 119.135C177.51 119.102 177.476 119.075 177.437 119.057C177.398 119.039 177.356 119.03 177.313 119.03C177.27 119.03 177.228 119.039 177.189 119.057C177.151 119.075 177.116 119.102 177.088 119.135L175.233 121.44C175.208 121.469 175.19 121.503 175.179 121.539C175.167 121.575 175.164 121.613 175.167 121.65C175.171 121.688 175.182 121.725 175.2 121.758C175.219 121.791 175.243 121.82 175.273 121.844C175.314 121.882 175.367 121.907 175.423 121.913Z" fill="#263238"/>
<path d="M178.882 119.215C179.06 119.215 179.234 119.163 179.382 119.064C179.53 118.965 179.645 118.825 179.713 118.66C179.781 118.496 179.799 118.315 179.764 118.141C179.729 117.966 179.644 117.806 179.518 117.68C179.392 117.555 179.232 117.469 179.058 117.434C178.883 117.4 178.702 117.417 178.538 117.485C178.374 117.553 178.233 117.669 178.134 117.817C178.036 117.964 177.983 118.138 177.983 118.316C177.983 118.555 178.078 118.783 178.246 118.952C178.415 119.121 178.644 119.215 178.882 119.215ZM178.882 117.993C178.946 117.993 179.008 118.012 179.061 118.048C179.114 118.083 179.156 118.134 179.18 118.193C179.205 118.252 179.211 118.317 179.199 118.379C179.186 118.442 179.155 118.499 179.11 118.544C179.065 118.59 179.008 118.62 178.945 118.633C178.882 118.645 178.818 118.639 178.759 118.614C178.7 118.59 178.649 118.549 178.614 118.495C178.578 118.442 178.559 118.38 178.559 118.316C178.559 118.231 178.593 118.148 178.654 118.088C178.714 118.027 178.796 117.993 178.882 117.993Z" fill="#263238"/>
<path d="M146.772 123.192H154.928C155.004 123.192 155.077 123.162 155.131 123.108C155.185 123.054 155.216 122.981 155.216 122.904V116.835C155.216 116.758 155.185 116.685 155.131 116.631C155.077 116.577 155.004 116.547 154.928 116.547H153.147L152.322 115.722C152.268 115.67 152.196 115.641 152.121 115.642H149.636C149.561 115.641 149.489 115.67 149.435 115.722L148.61 116.547H146.76C146.684 116.547 146.61 116.577 146.556 116.631C146.502 116.685 146.472 116.758 146.472 116.835V122.904C146.472 122.943 146.48 122.981 146.495 123.017C146.51 123.053 146.532 123.085 146.56 123.112C146.588 123.139 146.622 123.16 146.658 123.174C146.694 123.188 146.733 123.194 146.772 123.192ZM154.639 122.616H147.06V117.123H148.743C148.781 117.123 148.818 117.116 148.853 117.101C148.888 117.086 148.919 117.064 148.945 117.036L149.769 116.218H151.994L152.818 117.036C152.844 117.064 152.875 117.086 152.91 117.101C152.944 117.116 152.982 117.123 153.02 117.123H154.622L154.639 122.616Z" fill="#263238"/>
<path d="M150.841 122.011C151.257 122.012 151.665 121.889 152.012 121.659C152.358 121.428 152.629 121.099 152.789 120.715C152.949 120.33 152.991 119.907 152.91 119.498C152.829 119.089 152.629 118.714 152.334 118.419C152.039 118.125 151.664 117.924 151.255 117.843C150.847 117.762 150.423 117.805 150.039 117.964C149.654 118.124 149.325 118.395 149.095 118.742C148.864 119.089 148.741 119.496 148.743 119.913C148.746 120.468 148.968 121 149.36 121.393C149.753 121.786 150.285 122.008 150.841 122.011ZM150.841 118.385C151.143 118.384 151.439 118.473 151.691 118.64C151.943 118.807 152.139 119.045 152.256 119.324C152.372 119.603 152.403 119.911 152.345 120.207C152.287 120.504 152.142 120.777 151.928 120.991C151.715 121.205 151.443 121.351 151.146 121.41C150.85 121.47 150.543 121.44 150.263 121.325C149.984 121.209 149.745 121.013 149.577 120.762C149.409 120.511 149.319 120.215 149.319 119.913C149.326 119.514 149.49 119.133 149.774 118.853C150.059 118.573 150.441 118.416 150.841 118.414V118.385Z" fill="#263238"/>
<path d="M125.691 119.198C125.691 119.426 125.759 119.649 125.886 119.839C126.012 120.028 126.192 120.176 126.403 120.263C126.614 120.35 126.846 120.373 127.069 120.329C127.293 120.284 127.498 120.175 127.659 120.013C127.821 119.852 127.93 119.647 127.975 119.423C128.019 119.199 127.997 118.968 127.909 118.757C127.822 118.546 127.674 118.366 127.485 118.24C127.295 118.113 127.072 118.045 126.844 118.045C126.539 118.045 126.245 118.167 126.029 118.383C125.813 118.599 125.691 118.892 125.691 119.198Z" fill="#263238"/>
<path d="M122.343 119.198C122.343 119.426 122.41 119.649 122.537 119.839C122.664 120.028 122.844 120.176 123.055 120.263C123.265 120.35 123.497 120.373 123.721 120.329C123.944 120.284 124.15 120.175 124.311 120.013C124.472 119.852 124.582 119.647 124.626 119.423C124.671 119.199 124.648 118.968 124.561 118.757C124.473 118.546 124.326 118.366 124.136 118.24C123.947 118.113 123.724 118.045 123.496 118.045C123.19 118.045 122.897 118.167 122.681 118.383C122.464 118.599 122.343 118.892 122.343 119.198Z" fill="#263238"/>
<path d="M119 119.198C119 119.426 119.068 119.649 119.194 119.839C119.321 120.028 119.501 120.176 119.712 120.263C119.922 120.35 120.154 120.373 120.378 120.329C120.601 120.284 120.807 120.175 120.968 120.013C121.129 119.852 121.239 119.647 121.284 119.423C121.328 119.199 121.305 118.968 121.218 118.757C121.131 118.546 120.983 118.366 120.793 118.24C120.604 118.113 120.381 118.045 120.153 118.045C119.847 118.045 119.554 118.167 119.338 118.383C119.122 118.599 119 118.892 119 119.198Z" fill="#263238"/>
<path d="M209.562 103.52C209.562 103.601 166.304 103.67 112.953 103.67C59.6018 103.67 16.3262 103.601 16.3262 103.52C16.3262 103.44 59.5557 103.37 112.953 103.37C166.35 103.37 209.562 103.428 209.562 103.52Z" fill="#263238"/>
<path d="M215.311 75.8879C194.355 75.8879 177.367 58.8998 177.367 37.944C177.367 16.9881 194.355 0 215.311 0C236.267 0 253.255 16.9881 253.255 37.944C253.255 58.8998 236.267 75.8879 215.311 75.8879Z" fill="#5E17EB"/>
<path d="M194.41 56C193.659 56 193.087 55.8553 192.695 55.566C192.303 55.272 192.107 54.838 192.107 54.264C192.107 54.152 192.114 54.0353 192.128 53.914C192.142 53.788 192.158 53.669 192.177 53.557C192.2 53.4403 192.221 53.3377 192.24 53.249C192.259 53.1603 192.273 53.095 192.282 53.053L193.192 53.228C193.178 53.3027 193.159 53.3983 193.136 53.515C193.113 53.6317 193.092 53.7553 193.073 53.886C193.054 54.012 193.045 54.1333 193.045 54.25C193.045 54.4927 193.096 54.684 193.199 54.824C193.302 54.9593 193.458 55.055 193.668 55.111C193.878 55.1623 194.142 55.188 194.459 55.188H196.328V52.486H197.266V56H194.41ZM193.703 52.745V51.947H194.641V52.745H193.703ZM194.662 52.745V51.947H195.6V52.745H194.662ZM199.253 56V55.188H200.051V56H199.253ZM198.322 56V51.051H199.253V56H198.322ZM200.051 56V55.188C200.107 55.188 200.145 55.2253 200.163 55.3C200.182 55.37 200.191 55.468 200.191 55.594C200.191 55.7153 200.182 55.8133 200.163 55.888C200.145 55.9627 200.107 56 200.051 56ZM203.971 56V55.188H204.706V56H203.971ZM200.051 56V55.188H203.32L203.033 55.433V53.095L203.271 53.298H202.389C202.183 53.298 202.022 53.3237 201.906 53.375C201.789 53.4263 201.707 53.522 201.661 53.662C201.614 53.7973 201.591 53.991 201.591 54.243C201.591 54.5183 201.614 54.7237 201.661 54.859C201.707 54.9897 201.789 55.0783 201.906 55.125C202.022 55.167 202.183 55.188 202.389 55.188V55.916C201.992 55.916 201.665 55.86 201.409 55.748C201.152 55.636 200.961 55.4587 200.835 55.216C200.713 54.9687 200.653 54.6443 200.653 54.243C200.653 53.8603 200.713 53.5383 200.835 53.277C200.961 53.0157 201.152 52.8197 201.409 52.689C201.665 52.5537 201.992 52.486 202.389 52.486H203.971V56H200.051ZM200.051 56C199.995 56 199.957 55.9627 199.939 55.888C199.92 55.8133 199.911 55.7153 199.911 55.594C199.911 55.468 199.92 55.37 199.939 55.3C199.957 55.2253 199.995 55.188 200.051 55.188V56ZM204.706 56V55.188C204.762 55.188 204.799 55.2253 204.818 55.3C204.836 55.37 204.846 55.468 204.846 55.594C204.846 55.7153 204.836 55.8133 204.818 55.888C204.799 55.9627 204.762 56 204.706 56ZM201.675 52.066V51.268H202.613V52.066H201.675ZM202.634 52.066V51.268H203.572V52.066H202.634ZM206.75 56V55.188H207.625V56H206.75ZM207.625 56V55.188C207.681 55.188 207.718 55.2253 207.737 55.3C207.756 55.37 207.765 55.468 207.765 55.594C207.765 55.7153 207.756 55.8133 207.737 55.888C207.718 55.9627 207.681 56 207.625 56ZM204.706 56V55.188H206.365L205.819 55.643V52.486H206.75V56H204.706ZM204.706 56C204.65 56 204.613 55.9627 204.594 55.888C204.575 55.8133 204.566 55.7153 204.566 55.594C204.566 55.468 204.575 55.37 204.594 55.3C204.613 55.2253 204.65 55.188 204.706 55.188V56ZM204.986 57.456V56.658H205.924V57.456H204.986ZM205.945 57.456V56.658H206.883V57.456H205.945ZM209.354 56V55.188H210.089V56H209.354ZM208.416 56V51.051H209.354V56H208.416ZM207.625 56V55.188H208.416V56H207.625ZM207.625 56C207.569 56 207.532 55.9627 207.513 55.888C207.494 55.8133 207.485 55.7153 207.485 55.594C207.485 55.468 207.494 55.37 207.513 55.3C207.532 55.2253 207.569 55.188 207.625 55.188V56ZM210.089 56V55.188C210.145 55.188 210.182 55.2253 210.201 55.3C210.22 55.37 210.229 55.468 210.229 55.594C210.229 55.7153 210.22 55.8133 210.201 55.888C210.182 55.9627 210.145 56 210.089 56ZM210.086 56V55.188H211.57C211.771 55.188 211.964 55.1507 212.151 55.076C212.338 54.9967 212.508 54.894 212.662 54.768C212.821 54.6373 212.958 54.495 213.075 54.341C213.196 54.1823 213.29 54.0213 213.355 53.858C213.425 53.6947 213.46 53.5407 213.46 53.396V52.948L213.908 53.69C213.665 53.5593 213.418 53.4613 213.166 53.396C212.914 53.3307 212.674 53.298 212.445 53.298C212.221 53.298 211.981 53.3307 211.724 53.396C211.472 53.4613 211.227 53.5593 210.989 53.69L211.437 52.948V53.396C211.437 53.5407 211.47 53.6947 211.535 53.858C211.605 54.0213 211.698 54.1823 211.815 54.341C211.932 54.495 212.069 54.6373 212.228 54.768C212.387 54.894 212.559 54.9967 212.746 55.076C212.933 55.1507 213.124 55.188 213.32 55.188H214.762V56H213.614C213.25 56 212.909 55.9417 212.592 55.825C212.275 55.7083 211.988 55.5543 211.731 55.363C211.474 55.167 211.253 54.9547 211.066 54.726C210.884 54.4927 210.744 54.2617 210.646 54.033C210.548 53.7997 210.499 53.5873 210.499 53.396V52.997C210.7 52.885 210.912 52.7917 211.136 52.717C211.365 52.6423 211.591 52.5863 211.815 52.549C212.044 52.507 212.254 52.486 212.445 52.486C212.641 52.486 212.851 52.507 213.075 52.549C213.299 52.5863 213.523 52.6423 213.747 52.717C213.976 52.7917 214.19 52.885 214.391 52.997V53.396C214.391 53.5873 214.342 53.7997 214.244 54.033C214.146 54.2617 214.004 54.4927 213.817 54.726C213.635 54.9547 213.416 55.167 213.159 55.363C212.902 55.5543 212.615 55.7083 212.298 55.825C211.981 55.9417 211.64 56 211.276 56H210.086ZM210.086 56C210.03 56 209.993 55.9627 209.974 55.888C209.955 55.8133 209.946 55.7153 209.946 55.594C209.946 55.468 209.955 55.37 209.974 55.3C209.993 55.2253 210.03 55.188 210.086 55.188V56ZM214.762 56V55.188C214.818 55.188 214.855 55.2253 214.874 55.3C214.893 55.37 214.902 55.468 214.902 55.594C214.902 55.7153 214.893 55.8133 214.874 55.888C214.855 55.9627 214.818 56 214.762 56ZM214.762 56V55.188H216.421L215.875 55.643V52.486H216.806V56H214.762ZM214.762 56C214.706 56 214.668 55.9627 214.65 55.888C214.631 55.8133 214.622 55.7153 214.622 55.594C214.622 55.468 214.631 55.37 214.65 55.3C214.668 55.2253 214.706 55.188 214.762 55.188V56ZM215.042 52.066V51.268H215.98V52.066H215.042ZM216.001 52.066V51.268H216.939V52.066H216.001ZM221.965 56V55.188H222.7V56H221.965ZM219.123 56V55.188H221.664L221.027 55.741V54.565C221.027 54.2337 220.992 53.977 220.922 53.795C220.856 53.613 220.744 53.4847 220.586 53.41C220.432 53.3353 220.219 53.298 219.949 53.298H219.382V52.486H219.949C220.378 52.486 220.742 52.556 221.041 52.696C221.344 52.836 221.573 53.06 221.727 53.368C221.885 53.6713 221.965 54.0703 221.965 54.565V56H219.123ZM222.7 56V55.188C222.756 55.188 222.793 55.2253 222.812 55.3C222.83 55.37 222.84 55.468 222.84 55.594C222.84 55.7153 222.83 55.8133 222.812 55.888C222.793 55.9627 222.756 56 222.7 56ZM222.698 56V55.188H225.708L225.393 55.447V54.152C225.393 53.872 225.305 53.6597 225.127 53.515C224.955 53.3703 224.679 53.298 224.301 53.298C224.194 53.298 224.047 53.3073 223.86 53.326C223.674 53.34 223.471 53.3633 223.251 53.396L223.16 52.654C223.361 52.6073 223.564 52.5677 223.769 52.535C223.979 52.5023 224.185 52.486 224.385 52.486C224.768 52.486 225.104 52.5537 225.393 52.689C225.683 52.8197 225.909 53.0087 226.072 53.256C226.24 53.5033 226.324 53.802 226.324 54.152V56H222.698ZM222.698 56C222.642 56 222.605 55.9627 222.586 55.888C222.568 55.8133 222.558 55.7153 222.558 55.594C222.558 55.468 222.568 55.37 222.586 55.3C222.605 55.2253 222.642 55.188 222.698 55.188V56ZM224.049 57.491V56.693H224.987V57.491H224.049ZM230.343 56V55.188H231.078V56H230.343ZM228.453 57.736C228.28 57.736 228.098 57.722 227.907 57.694C227.72 57.6707 227.52 57.638 227.305 57.596L227.445 56.847C227.678 56.875 227.877 56.896 228.04 56.91C228.203 56.924 228.341 56.931 228.453 56.931C228.789 56.931 229.032 56.8703 229.181 56.749C229.33 56.6277 229.405 56.4457 229.405 56.203V53.13L229.636 53.298H228.761C228.57 53.298 228.416 53.3213 228.299 53.368C228.182 53.41 228.096 53.501 228.04 53.641C227.989 53.7763 227.963 53.984 227.963 54.264C227.963 54.53 227.986 54.7307 228.033 54.866C228.084 54.9967 228.168 55.083 228.285 55.125C228.402 55.167 228.56 55.188 228.761 55.188H229.405V56H228.761C228.364 56 228.038 55.937 227.781 55.811C227.524 55.685 227.333 55.4937 227.207 55.237C227.086 54.9803 227.025 54.656 227.025 54.264C227.025 53.872 227.086 53.5453 227.207 53.284C227.333 53.018 227.524 52.8197 227.781 52.689C228.038 52.5537 228.364 52.486 228.761 52.486H230.343V56.203C230.343 56.5203 230.264 56.7933 230.105 57.022C229.951 57.2553 229.732 57.4327 229.447 57.554C229.167 57.6753 228.836 57.736 228.453 57.736ZM231.078 56V55.188C231.134 55.188 231.171 55.2253 231.19 55.3C231.209 55.37 231.218 55.468 231.218 55.594C231.218 55.7153 231.209 55.8133 231.19 55.888C231.171 55.9627 231.134 56 231.078 56ZM231.079 56V55.188H232.738L232.192 55.643V52.486H233.123V56H231.079ZM231.079 56C231.023 56 230.986 55.9627 230.967 55.888C230.948 55.8133 230.939 55.7153 230.939 55.594C230.939 55.468 230.948 55.37 230.967 55.3C230.986 55.2253 231.023 55.188 231.079 55.188V56ZM231.359 57.456V56.658H232.297V57.456H231.359ZM232.318 57.456V56.658H233.256V57.456H232.318ZM235.44 56V55.188H238.996L238.548 55.65V51.051H239.486V56H235.44ZM236.413 55.188V52.031H237.344V55.188H236.413Z" fill="white"/>
<path d="M61.5178 127.9H24.4499C22.2093 127.898 20.0609 127.008 18.4766 125.423C16.8923 123.839 16.0015 121.691 16 119.45C16 118.34 16.2186 117.241 16.6432 116.216C17.0679 115.191 17.6903 114.26 18.4749 113.475C19.2596 112.69 20.1911 112.068 21.2163 111.643C22.2415 111.219 23.3403 111 24.4499 111H61.5178C63.7548 111.006 65.8982 111.899 67.4779 113.483C69.0576 115.067 69.9447 117.213 69.9447 119.45C69.9447 121.687 69.0576 123.833 67.4779 125.417C65.8982 127.001 63.7548 127.894 61.5178 127.9Z" fill="#5E17EB"/>
<path d="M41.4341 122V121.461H42.1831V122H41.4341ZM38.0181 123.862C37.6681 123.862 37.3508 123.797 37.0661 123.666C36.7861 123.54 36.5621 123.363 36.3941 123.134C36.2308 122.91 36.1491 122.649 36.1491 122.35C36.1491 122.252 36.1585 122.119 36.1771 121.951C36.1958 121.783 36.2191 121.599 36.2471 121.398C36.2751 121.193 36.3055 120.987 36.3381 120.782C36.3708 120.572 36.4011 120.378 36.4291 120.201L37.0171 120.292C36.9658 120.609 36.9191 120.901 36.8771 121.167C36.8398 121.433 36.8095 121.664 36.7861 121.86C36.7675 122.051 36.7581 122.201 36.7581 122.308C36.7581 122.523 36.8095 122.705 36.9121 122.854C37.0148 123.008 37.1618 123.125 37.3531 123.204C37.5445 123.283 37.7661 123.323 38.0181 123.323H39.6421C40.0201 123.323 40.3118 123.239 40.5171 123.071C40.7271 122.903 40.8321 122.674 40.8321 122.385V118.808L41.1121 119.039H39.9641C39.7028 119.039 39.4998 119.072 39.3551 119.137C39.2151 119.198 39.1171 119.317 39.0611 119.494C39.0051 119.667 38.9771 119.919 38.9771 120.25C38.9771 120.586 39.0051 120.84 39.0611 121.013C39.1171 121.186 39.2151 121.305 39.3551 121.37C39.4998 121.431 39.7028 121.461 39.9641 121.461H40.8321V122H39.9641C39.5535 122 39.2338 121.939 39.0051 121.818C38.7765 121.692 38.6155 121.501 38.5221 121.244C38.4288 120.983 38.3821 120.651 38.3821 120.25C38.3821 119.849 38.4288 119.52 38.5221 119.263C38.6155 119.002 38.7765 118.81 39.0051 118.689C39.2338 118.563 39.5535 118.5 39.9641 118.5H41.4341V122.385C41.4341 122.707 41.3501 122.978 41.1821 123.197C41.0141 123.421 40.7948 123.587 40.5241 123.694C40.2535 123.806 39.9595 123.862 39.6421 123.862H38.0181ZM42.1831 122V121.461C42.2438 121.461 42.2811 121.484 42.2951 121.531C42.3138 121.578 42.3231 121.643 42.3231 121.727C42.3231 121.806 42.3138 121.872 42.2951 121.923C42.2811 121.974 42.2438 122 42.1831 122ZM39.2851 117.898V117.247H39.8871V117.898H39.2851ZM40.2441 117.898V117.247H40.8461V117.898H40.2441ZM43.5925 122V121.461H44.3625V122H43.5925ZM44.3625 122V121.461C44.4232 121.461 44.4605 121.484 44.4745 121.531C44.4932 121.578 44.5025 121.643 44.5025 121.727C44.5025 121.806 44.4932 121.872 44.4745 121.923C44.4605 121.974 44.4232 122 44.3625 122ZM42.1855 122V121.461H43.2845L42.9905 121.699V118.5H43.5925V122H42.1855ZM42.1855 122C42.1249 122 42.0875 121.974 42.0735 121.923C42.0549 121.872 42.0455 121.806 42.0455 121.727C42.0455 121.643 42.0549 121.578 42.0735 121.531C42.0875 121.484 42.1249 121.461 42.1855 121.461V122ZM42.4655 123.288V122.637H43.0675V123.288H42.4655ZM43.4245 123.288V122.637H44.0265V123.288H43.4245ZM45.8014 122V121.461H46.5504V122H45.8014ZM45.1994 122V116.988H45.8014V122H45.1994ZM44.3594 122V121.461H45.1994V122H44.3594ZM44.3594 122C44.2987 122 44.2614 121.974 44.2474 121.923C44.2287 121.872 44.2194 121.806 44.2194 121.727C44.2194 121.643 44.2287 121.578 44.2474 121.531C44.2614 121.484 44.2987 121.461 44.3594 121.461V122ZM46.5504 122V121.461C46.611 121.461 46.6484 121.484 46.6624 121.531C46.681 121.578 46.6904 121.643 46.6904 121.727C46.6904 121.806 46.681 121.872 46.6624 121.923C46.6484 121.974 46.611 122 46.5504 122ZM46.5537 122V121.461H47.5687C47.8347 121.461 48.0914 121.417 48.3387 121.328C48.586 121.239 48.8124 121.12 49.0177 120.971C49.2277 120.822 49.4097 120.658 49.5637 120.481C49.7177 120.299 49.8367 120.115 49.9207 119.928C50.0047 119.737 50.0467 119.559 50.0467 119.396V118.969L50.3617 119.452C50.0957 119.317 49.832 119.214 49.5707 119.144C49.314 119.074 49.062 119.039 48.8147 119.039C48.572 119.039 48.32 119.074 48.0587 119.144C47.7974 119.214 47.536 119.317 47.2747 119.452L47.5897 118.969V119.396C47.5897 119.559 47.6317 119.737 47.7157 119.928C47.8044 120.115 47.9234 120.299 48.0727 120.481C48.2267 120.658 48.4064 120.822 48.6117 120.971C48.817 121.12 49.0434 121.239 49.2907 121.328C49.538 121.417 49.797 121.461 50.0677 121.461H51.0337V122H50.1027C49.7387 122 49.398 121.942 49.0807 121.825C48.7634 121.708 48.4764 121.554 48.2197 121.363C47.963 121.167 47.7414 120.955 47.5547 120.726C47.3727 120.493 47.2327 120.262 47.1347 120.033C47.0367 119.8 46.9877 119.587 46.9877 119.396V118.976C47.1884 118.869 47.3937 118.78 47.6037 118.71C47.8137 118.64 48.0214 118.589 48.2267 118.556C48.432 118.519 48.628 118.5 48.8147 118.5C49.006 118.5 49.2044 118.519 49.4097 118.556C49.615 118.589 49.8204 118.64 50.0257 118.71C50.2357 118.78 50.441 118.869 50.6417 118.976V119.396C50.6417 119.587 50.5927 119.8 50.4947 120.033C50.3967 120.262 50.2544 120.493 50.0677 120.726C49.8857 120.955 49.6664 121.167 49.4097 121.363C49.153 121.554 48.866 121.708 48.5487 121.825C48.2314 121.942 47.8907 122 47.5267 122H46.5537ZM46.5537 122C46.493 122 46.4557 121.974 46.4417 121.923C46.423 121.872 46.4137 121.806 46.4137 121.727C46.4137 121.643 46.423 121.578 46.4417 121.531C46.4557 121.484 46.493 121.461 46.5537 121.461V122ZM51.0337 122V121.461C51.0944 121.461 51.1317 121.484 51.1457 121.531C51.1644 121.578 51.1737 121.643 51.1737 121.727C51.1737 121.806 51.1644 121.872 51.1457 121.923C51.1317 121.974 51.0944 122 51.0337 122ZM51.0312 122V121.461H52.1303L51.8363 121.699V118.5H52.4383V122H51.0312ZM51.0312 122C50.9706 122 50.9332 121.974 50.9192 121.923C50.9006 121.872 50.8912 121.806 50.8912 121.727C50.8912 121.643 50.9006 121.578 50.9192 121.531C50.9332 121.484 50.9706 121.461 51.0312 121.461V122ZM51.3113 117.898V117.247H51.9133V117.898H51.3113ZM52.2703 117.898V117.247H52.8723V117.898H52.2703Z" fill="white"/>
<path d="M151.181 96V95.253H152.261V96H151.181ZM150.344 96V89.574H151.181V96H150.344ZM152.261 96V95.253C152.333 95.253 152.381 95.286 152.405 95.352C152.429 95.418 152.441 95.508 152.441 95.622C152.441 95.736 152.429 95.829 152.405 95.901C152.381 95.967 152.333 96 152.261 96ZM154.067 96V95.253H155.03V96H154.067ZM152.258 96V95.253H153.653L153.221 95.595V91.491H154.067V96H152.258ZM152.258 96C152.18 96 152.132 95.967 152.114 95.901C152.09 95.829 152.078 95.736 152.078 95.622C152.078 95.508 152.09 95.418 152.114 95.352C152.132 95.286 152.18 95.253 152.258 95.253V96ZM155.03 96V95.253C155.108 95.253 155.156 95.286 155.174 95.352C155.198 95.418 155.21 95.508 155.21 95.622C155.21 95.736 155.198 95.829 155.174 95.901C155.156 95.967 155.108 96 155.03 96ZM153.221 90.681V89.808H154.067V90.681H153.221ZM155.026 96V95.253H161.263L160.714 95.712V94.182C160.714 93.63 160.63 93.18 160.462 92.832C160.3 92.484 160.051 92.229 159.715 92.067C159.385 91.899 158.965 91.815 158.455 91.815C158.233 91.815 157.996 91.827 157.744 91.851C157.492 91.869 157.243 91.896 156.997 91.932C156.751 91.962 156.526 91.992 156.322 92.022L156.214 91.419C156.37 91.377 156.571 91.329 156.817 91.275C157.069 91.215 157.342 91.164 157.636 91.122C157.936 91.08 158.227 91.059 158.509 91.059C158.893 91.059 159.265 91.11 159.625 91.212C159.991 91.314 160.315 91.485 160.597 91.725C160.885 91.959 161.113 92.277 161.281 92.679C161.455 93.081 161.542 93.582 161.542 94.182V96H155.026ZM156.061 95.253V94.605C156.061 94.317 156.133 94.05 156.277 93.804C156.421 93.558 156.619 93.36 156.871 93.21C157.129 93.06 157.414 92.985 157.726 92.985C158.044 92.985 158.326 93.06 158.572 93.21C158.824 93.36 159.022 93.558 159.166 93.804C159.31 94.05 159.382 94.317 159.382 94.605V95.253H158.608V94.605C158.608 94.425 158.566 94.266 158.482 94.128C158.404 93.99 158.299 93.882 158.167 93.804C158.041 93.72 157.894 93.678 157.726 93.678C157.564 93.678 157.414 93.72 157.276 93.804C157.144 93.882 157.036 93.993 156.952 94.137C156.868 94.275 156.826 94.431 156.826 94.605V95.253H156.061ZM155.026 96C154.948 96 154.9 95.967 154.882 95.901C154.858 95.829 154.846 95.736 154.846 95.622C154.846 95.508 154.858 95.418 154.882 95.352C154.9 95.286 154.948 95.253 155.026 95.253V96ZM170.728 96V95.253H171.691V96H170.728ZM167.29 96C166.378 96 165.691 95.835 165.229 95.505C164.767 95.175 164.536 94.671 164.536 93.993C164.536 93.849 164.545 93.696 164.563 93.534C164.587 93.366 164.611 93.204 164.635 93.048C164.665 92.892 164.692 92.757 164.716 92.643C164.74 92.529 164.758 92.448 164.77 92.4L165.589 92.553C165.571 92.649 165.544 92.778 165.508 92.94C165.478 93.102 165.448 93.276 165.418 93.462C165.388 93.648 165.373 93.825 165.373 93.993C165.373 94.293 165.436 94.536 165.562 94.722C165.694 94.908 165.901 95.043 166.183 95.127C166.465 95.211 166.84 95.253 167.308 95.253H170.314L169.882 95.595V89.574H170.728V96H167.29ZM171.691 96V95.253C171.769 95.253 171.817 95.286 171.835 95.352C171.859 95.418 171.871 95.508 171.871 95.622C171.871 95.736 171.859 95.829 171.835 95.901C171.817 95.967 171.769 96 171.691 96ZM167.182 92.805C167.08 92.679 167.002 92.559 166.948 92.445C166.894 92.325 166.867 92.199 166.867 92.067C166.867 91.887 166.912 91.725 167.002 91.581C167.098 91.437 167.221 91.323 167.371 91.239C167.527 91.155 167.692 91.113 167.866 91.113C167.968 91.113 168.07 91.128 168.172 91.158C168.274 91.188 168.364 91.227 168.442 91.275L168.19 91.716C168.142 91.686 168.094 91.668 168.046 91.662C167.998 91.65 167.95 91.644 167.902 91.644C167.758 91.644 167.647 91.683 167.569 91.761C167.491 91.839 167.452 91.941 167.452 92.067C167.452 92.145 167.467 92.22 167.497 92.292C167.527 92.358 167.575 92.433 167.641 92.517L167.182 92.805ZM166.687 92.823V92.301H168.568V92.823H166.687ZM176.541 96V95.253H177.504V96H176.541ZM171.69 96V95.253H176.136L175.704 95.631V91.95L176.055 92.247H174.633C174.309 92.247 174.057 92.286 173.877 92.364C173.697 92.442 173.571 92.589 173.499 92.805C173.433 93.021 173.4 93.336 173.4 93.75C173.4 94.164 173.433 94.479 173.499 94.695C173.571 94.911 173.697 95.058 173.877 95.136C174.057 95.214 174.309 95.253 174.633 95.253V95.838C174.111 95.838 173.7 95.772 173.4 95.64C173.1 95.508 172.884 95.289 172.752 94.983C172.626 94.677 172.563 94.266 172.563 93.75C172.563 93.24 172.626 92.82 172.752 92.49C172.884 92.154 173.1 91.905 173.4 91.743C173.7 91.575 174.111 91.491 174.633 91.491H176.541V96H171.69ZM171.69 96C171.612 96 171.564 95.967 171.546 95.901C171.522 95.829 171.51 95.736 171.51 95.622C171.51 95.508 171.522 95.418 171.546 95.352C171.564 95.286 171.612 95.253 171.69 95.253V96ZM177.504 96V95.253C177.582 95.253 177.63 95.286 177.648 95.352C177.672 95.418 177.684 95.508 177.684 95.622C177.684 95.736 177.672 95.829 177.648 95.901C177.63 95.967 177.582 96 177.504 96ZM173.778 90.762V89.889H174.624V90.762H173.778ZM175.011 90.762V89.889H175.857V90.762H175.011ZM179.444 96V95.253H180.461V96H179.444ZM180.461 96V95.253C180.539 95.253 180.587 95.286 180.605 95.352C180.629 95.418 180.641 95.508 180.641 95.622C180.641 95.736 180.629 95.829 180.605 95.901C180.587 95.967 180.539 96 180.461 96ZM177.509 96V95.253H179.039L178.607 95.595V91.491H179.444V96H177.509ZM177.509 96C177.431 96 177.383 95.967 177.365 95.901C177.341 95.829 177.329 95.736 177.329 95.622C177.329 95.508 177.341 95.418 177.365 95.352C177.383 95.286 177.431 95.253 177.509 95.253V96ZM177.869 97.692V96.819H178.715V97.692H177.869ZM179.102 97.692V96.819H179.948V97.692H179.102ZM182.37 96V95.253H183.342V96H182.37ZM181.533 96V89.574H182.37V96H181.533ZM180.462 96V95.253H181.533V96H180.462ZM180.462 96C180.384 96 180.336 95.967 180.318 95.901C180.294 95.829 180.282 95.736 180.282 95.622C180.282 95.508 180.294 95.418 180.318 95.352C180.336 95.286 180.384 95.253 180.462 95.253V96ZM183.342 96V95.253C183.414 95.253 183.462 95.286 183.486 95.352C183.51 95.418 183.522 95.508 183.522 95.622C183.522 95.736 183.51 95.829 183.486 95.901C183.462 95.967 183.414 96 183.342 96ZM183.345 96V95.253H184.749C185.079 95.253 185.394 95.196 185.694 95.082C186 94.968 186.282 94.818 186.54 94.632C186.798 94.446 187.02 94.239 187.206 94.011C187.398 93.783 187.548 93.552 187.656 93.318C187.764 93.084 187.818 92.862 187.818 92.652V92.103L188.25 92.778C187.908 92.598 187.569 92.466 187.233 92.382C186.903 92.292 186.582 92.247 186.27 92.247C185.964 92.247 185.643 92.292 185.307 92.382C184.977 92.466 184.644 92.598 184.308 92.778L184.74 92.103V92.652C184.74 92.862 184.794 93.084 184.902 93.318C185.01 93.552 185.157 93.783 185.343 94.011C185.529 94.239 185.751 94.446 186.009 94.632C186.267 94.818 186.546 94.968 186.846 95.082C187.152 95.196 187.47 95.253 187.8 95.253H189.15V96H187.908C187.44 96 187.002 95.925 186.594 95.775C186.186 95.625 185.817 95.427 185.487 95.181C185.157 94.929 184.872 94.656 184.632 94.362C184.398 94.062 184.218 93.765 184.092 93.471C183.966 93.171 183.903 92.898 183.903 92.652V92.121C184.161 91.983 184.425 91.869 184.695 91.779C184.965 91.683 185.235 91.611 185.505 91.563C185.775 91.515 186.03 91.491 186.27 91.491C186.522 91.491 186.78 91.515 187.044 91.563C187.308 91.611 187.575 91.683 187.845 91.779C188.121 91.869 188.388 91.983 188.646 92.121V92.652C188.646 92.898 188.583 93.171 188.457 93.471C188.331 93.765 188.148 94.062 187.908 94.362C187.674 94.656 187.392 94.929 187.062 95.181C186.732 95.427 186.363 95.625 185.955 95.775C185.547 95.925 185.109 96 184.641 96H183.345ZM183.345 96C183.267 96 183.219 95.967 183.201 95.901C183.177 95.829 183.165 95.736 183.165 95.622C183.165 95.508 183.177 95.418 183.201 95.352C183.219 95.286 183.267 95.253 183.345 95.253V96ZM189.15 96V95.253C189.228 95.253 189.276 95.286 189.294 95.352C189.318 95.418 189.33 95.508 189.33 95.622C189.33 95.736 189.318 95.829 189.294 95.901C189.276 95.967 189.228 96 189.15 96ZM189.146 96V95.253H190.676L190.244 95.595V91.491H191.081V96H189.146ZM189.146 96C189.068 96 189.02 95.967 189.002 95.901C188.978 95.829 188.966 95.736 188.966 95.622C188.966 95.508 188.978 95.418 189.002 95.352C189.02 95.286 189.068 95.253 189.146 95.253V96ZM189.506 90.762V89.889H190.352V90.762H189.506ZM190.739 90.762V89.889H191.585V90.762H190.739ZM196.874 96C195.962 96 195.275 95.835 194.813 95.505C194.351 95.175 194.12 94.671 194.12 93.993C194.12 93.849 194.129 93.696 194.147 93.534C194.171 93.366 194.195 93.204 194.219 93.048C194.249 92.892 194.276 92.757 194.3 92.643C194.324 92.529 194.342 92.448 194.354 92.4L195.173 92.553C195.155 92.649 195.128 92.778 195.092 92.94C195.062 93.102 195.032 93.276 195.002 93.462C194.972 93.648 194.957 93.825 194.957 93.993C194.957 94.293 195.02 94.536 195.146 94.722C195.278 94.908 195.485 95.043 195.767 95.127C196.049 95.211 196.424 95.253 196.892 95.253H199.898L199.466 95.595V89.574H200.312V96H196.874ZM196.766 92.805C196.664 92.679 196.586 92.559 196.532 92.445C196.478 92.325 196.451 92.199 196.451 92.067C196.451 91.887 196.496 91.725 196.586 91.581C196.682 91.437 196.805 91.323 196.955 91.239C197.111 91.155 197.276 91.113 197.45 91.113C197.552 91.113 197.654 91.128 197.756 91.158C197.858 91.188 197.948 91.227 198.026 91.275L197.774 91.716C197.726 91.686 197.678 91.668 197.63 91.662C197.582 91.65 197.534 91.644 197.486 91.644C197.342 91.644 197.231 91.683 197.153 91.761C197.075 91.839 197.036 91.941 197.036 92.067C197.036 92.145 197.051 92.22 197.081 92.292C197.111 92.358 197.159 92.433 197.225 92.517L196.766 92.805ZM196.271 92.823V92.301H198.152V92.823H196.271ZM202.668 96V95.253H203.82V96H202.668ZM201.12 98.061C201.042 98.061 200.961 98.055 200.877 98.043C200.787 98.037 200.697 98.031 200.607 98.025L200.679 97.278C200.769 97.284 200.853 97.29 200.931 97.296C201.003 97.302 201.063 97.305 201.111 97.305C201.381 97.305 201.597 97.203 201.759 96.999C201.927 96.795 202.011 96.51 202.011 96.144V91.491H202.857V96.144C202.857 96.522 202.782 96.855 202.632 97.143C202.482 97.431 202.278 97.656 202.02 97.818C201.762 97.98 201.462 98.061 201.12 98.061ZM203.82 96V95.253C203.898 95.253 203.946 95.286 203.964 95.352C203.988 95.418 204 95.508 204 95.622C204 95.736 203.988 95.829 203.964 95.901C203.946 95.967 203.898 96 203.82 96ZM203.823 96V95.253H205.353L204.921 95.595V91.491H205.758V96H203.823ZM203.823 96C203.745 96 203.697 95.967 203.679 95.901C203.655 95.829 203.643 95.736 203.643 95.622C203.643 95.508 203.655 95.418 203.679 95.352C203.697 95.286 203.745 95.253 203.823 95.253V96ZM204.183 90.762V89.889H205.029V90.762H204.183ZM205.416 90.762V89.889H206.262V90.762H205.416ZM207.315 96V89.574H208.152V96H207.315Z" fill="#E0E0E0"/>
<path d="M215.287 16.0625C216.83 16.0622 218.347 16.4613 219.69 17.2211C221.033 17.9809 222.156 19.0755 222.951 20.3983C223.745 21.7211 224.184 23.227 224.224 24.7696C224.263 26.3121 223.903 27.8386 223.178 29.2006L224.153 32.1268C224.234 32.3691 224.246 32.6291 224.187 32.8776C224.128 33.1262 224.002 33.3535 223.821 33.5341C223.641 33.7147 223.413 33.8414 223.165 33.9C222.916 33.9587 222.656 33.947 222.414 33.8662L219.488 32.8908C218.289 33.5283 216.961 33.8844 215.604 33.932C214.247 33.9796 212.898 33.7175 211.657 33.1656C210.417 32.6136 209.319 31.7863 208.446 30.7465C207.573 29.7067 206.948 28.4817 206.619 27.1645C206.291 25.8473 206.266 24.4725 206.548 23.1445C206.83 21.8164 207.411 20.57 208.246 19.4999C209.082 18.4298 210.15 17.5641 211.37 16.9685C212.59 16.3729 213.929 16.0631 215.287 16.0625ZM212.537 27.0625H218.037C218.219 27.0625 218.394 26.9901 218.523 26.8611C218.652 26.7322 218.725 26.5573 218.725 26.375C218.725 26.1927 218.652 26.0178 218.523 25.8889C218.394 25.7599 218.219 25.6875 218.037 25.6875H212.537C212.355 25.6875 212.18 25.7599 212.051 25.8889C211.922 26.0178 211.85 26.1927 211.85 26.375C211.85 26.5573 211.922 26.7322 212.051 26.8611C212.18 26.9901 212.355 27.0625 212.537 27.0625ZM212.537 24.3125H218.037C218.219 24.3125 218.394 24.2401 218.523 24.1111C218.652 23.9822 218.725 23.8073 218.725 23.625C218.725 23.4427 218.652 23.2678 218.523 23.1389C218.394 23.0099 218.219 22.9375 218.037 22.9375H212.537C212.355 22.9375 212.18 23.0099 212.051 23.1389C211.922 23.2678 211.85 23.4427 211.85 23.625C211.85 23.8073 211.922 23.9822 212.051 24.1111C212.18 24.2401 212.355 24.3125 212.537 24.3125Z" fill="white"/>
</svg>
